<?xml version="1.0" encoding="UTF-8"?>
<svg preserveAspectRatio="xMidYMid slice" xmlns="http://www.w3.org/2000/svg" width="1200px" height="316px" viewBox="0 0 91 24" fill="none">
  <g id="Group 32">
    <path id="Vector" d="M38.4424 11.4246V11.3681C40.5431 10.9417 41.9591 9.2928 41.9591 6.93374C41.9591 2.58551 38.544 1.84574 36.2675 1.84574H30.0911V21.6846H36.2605C38.484 21.6846 42.4793 20.9462 42.4793 15.9436C42.4793 13.4999 40.8346 11.6801 38.4318 11.4246H38.4424ZM33.6367 4.9728H35.0033C36.6219 4.9728 38.4184 5.14221 38.4184 7.4448C38.4184 9.49186 36.5718 9.86104 35.0795 9.86104H33.6374V4.9721L33.6367 4.9728ZM35.3068 18.5589H33.6367V12.8173H35.3068C37.0772 12.8173 38.9492 13.2147 38.9492 15.8017C38.9492 18.1029 36.9515 18.5589 35.3068 18.5589ZM54.8598 18.8999C51.0904 18.8999 48.8647 15.8575 48.8647 11.8227C48.8647 7.7568 51.1412 4.62974 54.7842 4.62974C56.0548 4.62974 57.2689 4.82739 58.6101 5.68151L58.8642 2.32857C57.5767 1.7568 56.0337 1.50269 54.8689 1.50269C48.8682 1.50339 45.1765 5.3081 45.1765 12.1057C45.1765 18.8116 49.1471 22.0234 54.864 22.0234C56.2052 22.0234 57.5958 21.7396 58.8861 21.3987L58.7351 18.074C57.9021 18.554 56.2574 18.8956 54.8654 18.8956L54.8598 18.8999ZM69.3798 13.4434H73.1231V18.6175C72.516 18.7869 71.7607 18.8999 70.8007 18.8999C67.0313 18.8999 64.8078 15.8575 64.8078 11.8227C64.8078 7.7568 67.0878 4.62974 71.2101 4.62974C72.6289 4.62974 74.3993 4.96857 75.7631 5.68151L75.9932 2.32857C74.4755 1.81327 72.8569 1.50269 70.8078 1.50269C64.8127 1.50269 61.1195 5.30739 61.1195 12.105C61.1167 18.8109 65.0866 22.0227 70.8042 22.0227C72.7009 22.0227 74.6485 21.5639 76.5219 20.9992V10.3128H69.3812V13.4399L69.3798 13.4434ZM83.3929 18.5589V12.9881H89.6915V9.86104H83.3929V4.9721H90.2732V1.84504H79.8515V21.6846H90.324V18.5596" fill="black"></path>
    <g id="Group">
      <path id="Vector_2" d="M0 0V24H24V0H0ZM23.0802 23.0788H0.924706V0.924706H23.0802V23.0788Z" fill="#E30521"></path>
      <path id="Vector_3" d="M21.78 21.907L15.6904 12.0091L21.8061 2.08228H10.7308L4.62494 11.9999L10.7075 21.9077" fill="#E30521"></path>
    </g>
  </g>
</svg>
